<svg width="69" height="101" viewBox="0 0 69 101" fill="none" xmlns="http://www.w3.org/2000/svg">
<path fill-rule="evenodd" clip-rule="evenodd" d="M17.0438 2.11354C21.0392 0.444382 25.3677 -0.252248 29.6802 0.0812022C33.9926 0.414649 38.165 1.76856 41.8615 4.03132C45.5577 6.29395 48.6735 9.40125 50.9608 13.1L45.2517 16.6305C43.5141 13.8206 41.1515 11.467 38.3569 9.75635C35.5626 8.04582 32.4133 7.02508 29.1627 6.77373C25.9121 6.52238 22.6476 7.04716 19.6314 8.30725C16.6151 9.56742 13.9292 11.5287 11.7921 14.0367C9.65486 16.5448 8.12671 19.5291 7.33387 22.7502C6.54101 25.9715 6.50641 29.3369 7.23295 32.5744C7.95946 35.8118 9.42608 38.8279 11.5116 41.3808L8.91237 43.5041L11.5116 41.3808C13.5969 43.9335 16.2423 45.9512 19.2324 47.2747L16.5154 53.4128C12.5557 51.6601 9.06189 48.9922 6.31316 45.6275C3.56458 42.2629 1.63728 38.295 0.683343 34.0442C-0.270576 29.7935 -0.225204 25.3758 0.815897 21.146C1.85702 16.916 3.86556 12.9893 6.68295 9.68299C9.5005 6.37653 13.0487 3.78262 17.0438 2.11354Z" fill="url(#paint0_linear)"/>
<path d="M22.4198 36.9188C22.2706 36.9188 22.1438 36.8666 22.0394 36.7622C21.935 36.6577 21.8828 36.5309 21.8828 36.3818V21.8156C21.8828 21.6516 21.9275 21.5173 22.017 21.4129C22.1214 21.3085 22.2557 21.2563 22.4198 21.2563H28.9085C30.6538 21.2563 31.959 21.6441 32.8241 22.4198C33.6893 23.1805 34.1219 24.2247 34.1219 25.5523C34.1219 26.3279 33.928 26.9917 33.5401 27.5436C33.1672 28.0806 32.7272 28.4685 32.22 28.7071C32.8465 28.9906 33.3761 29.453 33.8086 30.0944C34.2412 30.7358 34.4575 31.4667 34.4575 32.2871C34.4575 33.6744 33.9876 34.7931 33.0479 35.6434C32.1081 36.4937 30.7955 36.9188 29.1099 36.9188H22.4198ZM28.5058 27.6779C29.2665 27.6779 29.8483 27.4914 30.251 27.1185C30.6687 26.7456 30.8775 26.2459 30.8775 25.6194C30.8775 24.9929 30.6761 24.5081 30.2734 24.165C29.8706 23.8219 29.2814 23.6504 28.5058 23.6504H25.0376V27.6779H28.5058ZM28.7295 34.5246C29.5052 34.5246 30.1093 34.3158 30.5419 33.8981C30.9745 33.4656 31.1908 32.9211 31.1908 32.2648C31.1908 31.6084 30.967 31.0714 30.5195 30.6538C30.0869 30.2212 29.4903 30.0049 28.7295 30.0049H25.0376V34.5246H28.7295Z" fill="white"/>
<path d="M40.0182 36.9188C39.8691 36.9188 39.7423 36.8666 39.6379 36.7622C39.5334 36.6577 39.4812 36.5309 39.4812 36.3818V21.7933C39.4812 21.6292 39.5334 21.5024 39.6379 21.4129C39.7423 21.3085 39.8691 21.2563 40.0182 21.2563H42.1662C42.3303 21.2563 42.4571 21.3085 42.5466 21.4129C42.651 21.5024 42.7032 21.6292 42.7032 21.7933V36.3818C42.7032 36.5309 42.651 36.6577 42.5466 36.7622C42.4571 36.8666 42.3303 36.9188 42.1662 36.9188H40.0182Z" fill="white"/>
<path d="M48.9639 36.9188C48.8147 36.9188 48.6879 36.8666 48.5835 36.7622C48.4791 36.6577 48.4269 36.5309 48.4269 36.3818V21.8156C48.4269 21.6516 48.4716 21.5173 48.5611 21.4129C48.6655 21.3085 48.7998 21.2563 48.9639 21.2563H50.7091C50.9925 21.2563 51.2088 21.3831 51.358 21.6366L57.7573 31.5711V21.8156C57.7573 21.6516 57.802 21.5173 57.8915 21.4129C57.9959 21.3085 58.1302 21.2563 58.2943 21.2563H60.2185C60.3826 21.2563 60.5168 21.3085 60.6213 21.4129C60.7257 21.5173 60.7779 21.6516 60.7779 21.8156V36.3594C60.7779 36.5235 60.7257 36.6577 60.6213 36.7622C60.5168 36.8666 60.39 36.9188 60.2409 36.9188H58.4733C58.1749 36.9188 57.9512 36.792 57.802 36.5384L51.4251 26.8276V36.3818C51.4251 36.5309 51.3729 36.6577 51.2685 36.7622C51.179 36.8666 51.0522 36.9188 50.8881 36.9188H48.9639Z" fill="white"/>
<path d="M20.9206 58.175C20.7864 58.175 20.6745 58.1303 20.585 58.0408C20.4955 57.9513 20.4508 57.8394 20.4508 57.7052L20.4955 57.5038L25.8655 43.0719C26.0147 42.699 26.2832 42.5125 26.671 42.5125H29.1323C29.5201 42.5125 29.7886 42.699 29.9378 43.0719L35.3078 57.5038L35.3525 57.7052C35.3525 57.8394 35.3003 57.9513 35.1959 58.0408C35.1064 58.1303 35.002 58.175 34.8826 58.175H32.8913C32.578 58.175 32.3617 58.0333 32.2424 57.7499L31.2131 55.0425H24.5901L23.5609 57.7499C23.4416 58.0333 23.2253 58.175 22.912 58.175H20.9206ZM25.3733 52.447H30.43L27.9016 45.5555L25.3733 52.447Z" fill="white"/>
<path d="M40.193 58.175C40.0439 58.175 39.9171 58.1228 39.8127 58.0184C39.7082 57.914 39.656 57.7872 39.656 57.638V43.0719C39.656 42.9078 39.7008 42.7736 39.7903 42.6692C39.8947 42.5647 40.029 42.5125 40.193 42.5125H45.9882C47.8229 42.5125 49.2549 42.9377 50.2842 43.7879C51.3283 44.6382 51.8504 45.8464 51.8504 47.4127C51.8504 48.5016 51.5894 49.419 51.0673 50.1648C50.5452 50.8957 49.8143 51.4252 48.8745 51.7534L52.1189 57.459C52.1637 57.5485 52.186 57.6306 52.186 57.7052C52.186 57.8394 52.1338 57.9513 52.0294 58.0408C51.9399 58.1303 51.8355 58.175 51.7162 58.175H49.6577C49.419 58.175 49.2325 58.1228 49.0983 58.0184C48.964 57.8991 48.8447 57.7499 48.7403 57.5709L45.8763 52.268H42.8109V57.638C42.8109 57.7872 42.7587 57.914 42.6543 58.0184C42.5499 58.1228 42.4156 58.175 42.2515 58.175H40.193ZM45.921 49.7173C46.816 49.7173 47.4873 49.5234 47.9348 49.1355C48.3823 48.7328 48.606 48.151 48.606 47.3903C48.606 46.6295 48.3823 46.0478 47.9348 45.645C47.4873 45.2274 46.816 45.0185 45.921 45.0185H42.8109V49.7173H45.921Z" fill="white"/>
<path d="M61.0345 58.175C60.8853 58.175 60.7585 58.1228 60.6541 58.0184C60.5497 57.914 60.4975 57.7872 60.4975 57.638V52.6037L55.1946 43.2285C55.1499 43.0943 55.1275 43.0122 55.1275 42.9824C55.1275 42.8482 55.1722 42.7363 55.2617 42.6468C55.3662 42.5573 55.478 42.5125 55.5974 42.5125H57.6111C57.8945 42.5125 58.1257 42.6542 58.3047 42.9377L62.0637 49.4264L65.8451 42.9377C65.9048 42.8332 65.9868 42.7363 66.0912 42.6468C66.2106 42.5573 66.3523 42.5125 66.5164 42.5125H68.5301C68.6644 42.5125 68.7762 42.5573 68.8657 42.6468C68.9552 42.7363 69 42.8482 69 42.9824C69 43.0719 68.9776 43.1539 68.9329 43.2285L63.6524 52.6037V57.638C63.6524 57.8021 63.6002 57.9364 63.4957 58.0408C63.3913 58.1303 63.2571 58.175 63.093 58.175H61.0345Z" fill="white"/>
<path d="M27.3423 79.6551C25.9998 79.6551 24.8512 79.4537 23.8965 79.0509C22.9418 78.6482 22.2184 78.1186 21.7261 77.4623C21.2339 76.806 20.9728 76.09 20.943 75.3143C20.943 75.195 20.9878 75.0906 21.0773 75.0011C21.1668 74.8966 21.2786 74.8444 21.4129 74.8444H23.449C23.6131 74.8444 23.7473 74.8817 23.8518 74.9563C23.9562 75.0309 24.0531 75.1353 24.1426 75.2696C24.2918 75.7767 24.6274 76.2018 25.1495 76.5449C25.6865 76.888 26.4174 77.0596 27.3423 77.0596C28.3864 77.0596 29.1696 76.888 29.6916 76.5449C30.2286 76.1869 30.4971 75.7021 30.4971 75.0906C30.4971 74.6878 30.3629 74.3522 30.0944 74.0837C29.8259 73.8152 29.4157 73.584 28.8638 73.39C28.3268 73.1812 27.5213 72.9351 26.4473 72.6517C24.6871 72.234 23.3968 71.6821 22.5764 70.9959C21.756 70.3098 21.3458 69.3253 21.3458 68.0424C21.3458 67.1773 21.5844 66.409 22.0618 65.7378C22.5391 65.0516 23.2178 64.5146 24.0979 64.1268C24.9929 63.739 26.0296 63.545 27.208 63.545C28.4461 63.545 29.5126 63.7613 30.4076 64.1939C31.3176 64.6265 32.0037 65.171 32.4661 65.8273C32.9435 66.4687 33.1971 67.1101 33.2269 67.7515C33.2269 67.8709 33.1821 67.9828 33.0926 68.0872C33.0031 68.1767 32.8913 68.2214 32.757 68.2214H30.6314C30.3032 68.2214 30.0795 68.0872 29.9601 67.8187C29.8856 67.3413 29.5947 66.946 29.0875 66.6328C28.5803 66.3046 27.9538 66.1405 27.208 66.1405C26.3876 66.1405 25.7387 66.2972 25.2614 66.6104C24.799 66.9237 24.5678 67.3786 24.5678 67.9753C24.5678 68.378 24.6871 68.7137 24.9258 68.9822C25.1644 69.2507 25.5373 69.4893 26.0445 69.6982C26.5517 69.8921 27.2901 70.1158 28.2596 70.3694C29.5872 70.6678 30.6389 71.0034 31.4145 71.3763C32.2051 71.7492 32.7869 72.2191 33.1598 72.7859C33.5327 73.3528 33.7191 74.0762 33.7191 74.9563C33.7191 75.9259 33.4506 76.7687 32.9136 77.4847C32.3916 78.1858 31.6457 78.7228 30.6761 79.0957C29.7215 79.4686 28.6102 79.6551 27.3423 79.6551Z" fill="white"/>
<path d="M44.1141 79.6551C42.1152 79.6551 40.6236 79.1031 39.6391 77.9993C38.6695 76.8955 38.14 75.4486 38.0505 73.6586C38.0355 73.2558 38.0281 72.5696 38.0281 71.6001C38.0281 70.6156 38.0355 69.9145 38.0505 69.4968C38.125 67.7366 38.662 66.3046 39.6615 65.2008C40.6609 64.097 42.1451 63.545 44.1141 63.545C46.0831 63.545 47.5673 64.097 48.5667 65.2008C49.5661 66.3046 50.1031 67.7366 50.1777 69.4968C50.2075 70.3321 50.2225 71.0332 50.2225 71.6001C50.2225 72.1669 50.2075 72.8531 50.1777 73.6586C50.0882 75.4486 49.5512 76.8955 48.5667 77.9993C47.5971 79.1031 46.1129 79.6551 44.1141 79.6551ZM44.1141 77.0372C45.0389 77.0372 45.7325 76.7388 46.195 76.1422C46.6574 75.5306 46.9035 74.6654 46.9333 73.5467C46.9483 73.1141 46.9557 72.4503 46.9557 71.5553C46.9557 70.6603 46.9483 70.0114 46.9333 69.6087C46.9035 68.5198 46.6574 67.6695 46.195 67.0579C45.7325 66.4463 45.0389 66.1331 44.1141 66.1182C43.1893 66.1331 42.4956 66.4463 42.0332 67.0579C41.5708 67.6695 41.3247 68.5198 41.2948 69.6087C41.2799 70.0114 41.2725 70.6603 41.2725 71.5553C41.2725 72.4503 41.2799 73.1141 41.2948 73.5467C41.3247 74.6654 41.5708 75.5306 42.0332 76.1422C42.4956 76.7388 43.1893 77.0372 44.1141 77.0372Z" fill="white"/>
<path d="M61.7496 79.6551C59.721 79.6551 58.1472 79.1404 57.0285 78.1112C55.9097 77.0819 55.3504 75.5231 55.3504 73.4348V64.3282C55.3504 64.1641 55.3951 64.0298 55.4846 63.9254C55.589 63.821 55.7233 63.7688 55.8874 63.7688H57.9459C58.1099 63.7688 58.2442 63.821 58.3486 63.9254C58.453 64.0298 58.5052 64.1641 58.5052 64.3282V73.4348C58.5052 74.6132 58.7812 75.5008 59.3331 76.0974C59.9 76.6941 60.698 76.9924 61.7272 76.9924C62.7565 76.9924 63.5471 76.6941 64.099 76.0974C64.6658 75.5008 64.9492 74.6132 64.9492 73.4348V64.3282C64.9492 64.1641 65.0015 64.0298 65.1059 63.9254C65.2103 63.821 65.3445 63.7688 65.5086 63.7688H67.5671C67.7312 63.7688 67.858 63.821 67.9475 63.9254C68.0519 64.0298 68.1041 64.1641 68.1041 64.3282V73.4348C68.1041 75.5231 67.5447 77.0819 66.426 78.1112C65.3222 79.1404 63.7634 79.6551 61.7496 79.6551Z" fill="white"/>
<path d="M22.4198 100.688C22.2706 100.688 22.1438 100.635 22.0394 100.531C21.935 100.427 21.8828 100.3 21.8828 100.151V85.5844C21.8828 85.4203 21.9275 85.2861 22.017 85.1817C22.1214 85.0773 22.2557 85.0251 22.4198 85.0251H24.165C24.4484 85.0251 24.6647 85.1519 24.8139 85.4054L31.2131 95.3399V85.5844C31.2131 85.4203 31.2579 85.2861 31.3474 85.1817C31.4518 85.0773 31.5861 85.0251 31.7501 85.0251H33.6744C33.8385 85.0251 33.9727 85.0773 34.0771 85.1817C34.1816 85.2861 34.2338 85.4203 34.2338 85.5844V100.128C34.2338 100.292 34.1816 100.427 34.0771 100.531C33.9727 100.635 33.8459 100.688 33.6968 100.688H31.9291C31.6308 100.688 31.4071 100.561 31.2579 100.307L24.881 90.5964V100.151C24.881 100.3 24.8288 100.427 24.7244 100.531C24.6349 100.635 24.5081 100.688 24.344 100.688H22.4198Z" fill="white"/>
<path d="M40.4771 100.688C40.3279 100.688 40.2011 100.635 40.0967 100.531C39.9923 100.427 39.9401 100.3 39.9401 100.151V85.5844C39.9401 85.4203 39.9848 85.2861 40.0743 85.1817C40.1788 85.0773 40.313 85.0251 40.4771 85.0251H45.9366C50.337 85.0251 52.582 87.0537 52.6715 91.1111C52.7013 91.9762 52.7162 92.558 52.7162 92.8563C52.7162 93.1397 52.7013 93.714 52.6715 94.5792C52.6118 96.6675 52.045 98.2114 50.971 99.2108C49.9119 100.195 48.2711 100.688 46.0485 100.688H40.4771ZM45.9366 98.0921C47.1747 98.0921 48.0697 97.8161 48.6216 97.2642C49.1735 96.7123 49.4644 95.7949 49.4942 94.5121C49.5241 93.6171 49.539 93.0577 49.539 92.8339C49.539 92.5953 49.5241 92.0434 49.4942 91.1782C49.4644 89.955 49.1586 89.06 48.5769 88.4932C47.9951 87.9114 47.0777 87.6206 45.8247 87.6206H43.095V98.0921H45.9366Z" fill="white"/>
<defs>
<linearGradient id="paint0_linear" x1="0" y1="0" x2="66.5758" y2="9.16044" gradientUnits="userSpaceOnUse">
<stop stop-color="#CD2EDB"/>
<stop offset="1" stop-color="#2EDBB1"/>
</linearGradient>
</defs>
</svg>
