<svg width="113" height="56" viewBox="0 0 113 56" fill="none" xmlns="http://www.w3.org/2000/svg">
<path fill-rule="evenodd" clip-rule="evenodd" d="M17.0438 2.11354C21.0392 0.444382 25.3677 -0.252248 29.6802 0.0812022C33.9926 0.414649 38.165 1.76856 41.8615 4.03132C45.5577 6.29395 48.6735 9.40125 50.9608 13.1L45.2517 16.6305C43.5141 13.8206 41.1515 11.467 38.3569 9.75635C35.5626 8.04582 32.4133 7.02508 29.1627 6.77373C25.9121 6.52238 22.6476 7.04716 19.6314 8.30725C16.6151 9.56742 13.9292 11.5287 11.7921 14.0367C9.65486 16.5448 8.12671 19.5291 7.33387 22.7502C6.54101 25.9715 6.50641 29.3369 7.23295 32.5744C7.95946 35.8118 9.42608 38.8279 11.5116 41.3808L8.91237 43.5041L11.5116 41.3808C13.5969 43.9335 16.2423 45.9512 19.2324 47.2747L16.5154 53.4128C12.5557 51.6601 9.06189 48.9922 6.31316 45.6275C3.56458 42.2629 1.63728 38.295 0.683343 34.0442C-0.270576 29.7935 -0.225204 25.3758 0.815897 21.146C1.85702 16.916 3.86556 12.9893 6.68295 9.68299C9.5005 6.37653 13.0487 3.78262 17.0438 2.11354Z" fill="url(#paint0_linear)"/>
<path d="M22.4198 35.6625C22.2707 35.6625 22.1439 35.6103 22.0394 35.5059C21.935 35.4015 21.8828 35.2747 21.8828 35.1255V20.5594C21.8828 20.3953 21.9276 20.261 22.0171 20.1566C22.1215 20.0522 22.2557 20 22.4198 20H28.9086C30.6538 20 31.959 20.3878 32.8242 21.1635C33.6894 21.9243 34.122 22.9684 34.122 24.296C34.122 25.0717 33.928 25.7355 33.5402 26.2874C33.1673 26.8244 32.7272 27.2122 32.2201 27.4509C32.8466 27.7343 33.3761 28.1967 33.8087 28.8381C34.2413 29.4795 34.4576 30.2105 34.4576 31.0309C34.4576 32.4181 33.9877 33.5369 33.048 34.3871C32.1082 35.2374 30.7955 35.6625 29.11 35.6625H22.4198ZM28.5058 26.4216C29.2666 26.4216 29.8483 26.2352 30.2511 25.8623C30.6687 25.4893 30.8776 24.9896 30.8776 24.3631C30.8776 23.7366 30.6762 23.2518 30.2735 22.9088C29.8707 22.5657 29.2815 22.3941 28.5058 22.3941H25.0377V26.4216H28.5058ZM28.7296 33.2684C29.5052 33.2684 30.1094 33.0596 30.542 32.6419C30.9745 32.2093 31.1908 31.6648 31.1908 31.0085C31.1908 30.3522 30.9671 29.8152 30.5196 29.3975C30.087 28.9649 29.4903 28.7486 28.7296 28.7486H25.0377V33.2684H28.7296Z" fill="white"/>
<path d="M40.0183 35.6625C39.8691 35.6625 39.7423 35.6103 39.6379 35.5059C39.5335 35.4015 39.4813 35.2747 39.4813 35.1255V20.537C39.4813 20.3729 39.5335 20.2461 39.6379 20.1566C39.7423 20.0522 39.8691 20 40.0183 20H42.1663C42.3304 20 42.4572 20.0522 42.5467 20.1566C42.6511 20.2461 42.7033 20.3729 42.7033 20.537V35.1255C42.7033 35.2747 42.6511 35.4015 42.5467 35.5059C42.4572 35.6103 42.3304 35.6625 42.1663 35.6625H40.0183Z" fill="white"/>
<path d="M48.9639 35.6625C48.8148 35.6625 48.688 35.6103 48.5836 35.5059C48.4791 35.4015 48.4269 35.2747 48.4269 35.1255V20.5594C48.4269 20.3953 48.4717 20.261 48.5612 20.1566C48.6656 20.0522 48.7998 20 48.9639 20H50.7092C50.9926 20 51.2089 20.1268 51.3581 20.3804L57.7573 30.3149V20.5594C57.7573 20.3953 57.8021 20.261 57.8916 20.1566C57.996 20.0522 58.1302 20 58.2943 20H60.2186C60.3826 20 60.5169 20.0522 60.6213 20.1566C60.7257 20.261 60.7779 20.3953 60.7779 20.5594V35.1031C60.7779 35.2672 60.7257 35.4015 60.6213 35.5059C60.5169 35.6103 60.3901 35.6625 60.2409 35.6625H58.4733C58.175 35.6625 57.9512 35.5357 57.8021 35.2821L51.4252 25.5714V35.1255C51.4252 35.2747 51.373 35.4015 51.2686 35.5059C51.1791 35.6103 51.0523 35.6625 50.8882 35.6625H48.9639Z" fill="white"/>
<path d="M64.569 35.6625C64.4347 35.6625 64.3229 35.6178 64.2334 35.5283C64.1439 35.4388 64.0991 35.3269 64.0991 35.1926L64.1439 34.9913L69.5139 20.5594C69.663 20.1865 69.9315 20 70.3194 20H72.7806C73.1685 20 73.437 20.1865 73.5861 20.5594L78.9561 34.9913L79.0009 35.1926C79.0009 35.3269 78.9487 35.4388 78.8443 35.5283C78.7548 35.6178 78.6503 35.6625 78.531 35.6625H76.5396C76.2264 35.6625 76.0101 35.5208 75.8908 35.2374L74.8615 32.53H68.2385L67.2092 35.2374C67.0899 35.5208 66.8736 35.6625 66.5604 35.6625H64.569ZM69.0216 29.9345H74.0784L71.55 23.043L69.0216 29.9345Z" fill="white"/>
<path d="M83.8414 35.6625C83.6922 35.6625 83.5654 35.6103 83.461 35.5059C83.3566 35.4015 83.3044 35.2747 83.3044 35.1255V20.5594C83.3044 20.3953 83.3491 20.261 83.4386 20.1566C83.5431 20.0522 83.6773 20 83.8414 20H89.6365C91.4713 20 92.9033 20.4251 93.9325 21.2754C94.9767 22.1256 95.4988 23.3339 95.4988 24.9001C95.4988 25.989 95.2377 26.9064 94.7157 27.6523C94.1936 28.3832 93.4627 28.9127 92.5229 29.2409L95.7673 34.9465C95.812 35.036 95.8344 35.1181 95.8344 35.1926C95.8344 35.3269 95.7822 35.4388 95.6778 35.5283C95.5883 35.6178 95.4839 35.6625 95.3645 35.6625H93.306C93.0674 35.6625 92.8809 35.6103 92.7467 35.5059C92.6124 35.3866 92.4931 35.2374 92.3886 35.0584L89.5247 29.7555H86.4593V35.1255C86.4593 35.2747 86.4071 35.4015 86.3026 35.5059C86.1982 35.6103 86.064 35.6625 85.8999 35.6625H83.8414ZM89.5694 27.2048C90.4644 27.2048 91.1357 27.0108 91.5832 26.623C92.0307 26.2203 92.2544 25.6385 92.2544 24.8778C92.2544 24.117 92.0307 23.5353 91.5832 23.1325C91.1357 22.7148 90.4644 22.506 89.5694 22.506H86.4593V27.2048H89.5694Z" fill="white"/>
<path d="M104.683 35.6625C104.534 35.6625 104.407 35.6103 104.302 35.5059C104.198 35.4015 104.146 35.2747 104.146 35.1255V30.0911L98.843 20.716C98.7982 20.5817 98.7758 20.4997 98.7758 20.4699C98.7758 20.3356 98.8206 20.2237 98.9101 20.1342C99.0145 20.0447 99.1264 20 99.2457 20H101.259C101.543 20 101.774 20.1417 101.953 20.4251L105.712 26.9139L109.493 20.4251C109.553 20.3207 109.635 20.2237 109.74 20.1342C109.859 20.0447 110.001 20 110.165 20H112.178C112.313 20 112.425 20.0447 112.514 20.1342C112.604 20.2237 112.648 20.3356 112.648 20.4699C112.648 20.5594 112.626 20.6414 112.581 20.716L107.301 30.0911V35.1255C107.301 35.2896 107.249 35.4238 107.144 35.5283C107.04 35.6178 106.905 35.6625 106.741 35.6625H104.683Z" fill="white"/>
<path d="M28.4386 55.0104C27.0961 55.0104 25.9475 54.809 24.9929 54.4062C24.0382 54.0035 23.3147 53.474 22.8225 52.8176C22.3302 52.1613 22.0692 51.4453 22.0394 50.6696C22.0394 50.5503 22.0841 50.4459 22.1736 50.3564C22.2631 50.252 22.375 50.1997 22.5092 50.1997H24.5454C24.7095 50.1997 24.8437 50.237 24.9481 50.3116C25.0525 50.3862 25.1495 50.4906 25.239 50.6249C25.3882 51.132 25.7238 51.5572 26.2459 51.9002C26.7829 52.2433 27.5138 52.4149 28.4386 52.4149C29.4828 52.4149 30.2659 52.2433 30.788 51.9002C31.325 51.5422 31.5935 51.0575 31.5935 50.4459C31.5935 50.0431 31.4593 49.7075 31.1908 49.439C30.9222 49.1705 30.512 48.9393 29.9601 48.7454C29.4231 48.5365 28.6176 48.2904 27.5436 48.007C25.7835 47.5893 24.4932 47.0374 23.6727 46.3512C22.8523 45.6651 22.4421 44.6806 22.4421 43.3977C22.4421 42.5326 22.6808 41.7644 23.1581 41.0931C23.6355 40.4069 24.3142 39.8699 25.1942 39.4821C26.0892 39.0943 27.126 38.9004 28.3044 38.9004C29.5425 38.9004 30.609 39.1166 31.504 39.5492C32.4139 39.9818 33.1001 40.5263 33.5625 41.1826C34.0398 41.824 34.2934 42.4654 34.3233 43.1069C34.3233 43.2262 34.2785 43.3381 34.189 43.4425C34.0995 43.532 33.9876 43.5767 33.8534 43.5767H31.7277C31.3996 43.5767 31.1758 43.4425 31.0565 43.174C30.9819 42.6967 30.691 42.3014 30.1839 41.9881C29.6767 41.6599 29.0502 41.4959 28.3044 41.4959C27.484 41.4959 26.8351 41.6525 26.3577 41.9657C25.8953 42.279 25.6641 42.7339 25.6641 43.3306C25.6641 43.7334 25.7835 44.069 26.0221 44.3375C26.2608 44.606 26.6337 44.8447 27.1409 45.0535C27.648 45.2474 28.3864 45.4712 29.356 45.7247C30.6836 46.0231 31.7352 46.3587 32.5109 46.7316C33.3015 47.1045 33.8832 47.5744 34.2561 48.1412C34.629 48.7081 34.8155 49.4315 34.8155 50.3116C34.8155 51.2812 34.547 52.124 34.01 52.84C33.4879 53.5411 32.7421 54.0781 31.7725 54.451C30.8178 54.8239 29.7065 55.0104 28.4386 55.0104Z" fill="white"/>
<path d="M45.2104 55.0104C43.2116 55.0104 41.7199 54.4585 40.7354 53.3546C39.7659 52.2508 39.2363 50.8039 39.1468 49.0139C39.1319 48.6111 39.1244 47.925 39.1244 46.9554C39.1244 45.9709 39.1319 45.2698 39.1468 44.8521C39.2214 43.0919 39.7584 41.6599 40.7578 40.5561C41.7572 39.4523 43.2414 38.9004 45.2104 38.9004C47.1794 38.9004 48.6637 39.4523 49.6631 40.5561C50.6625 41.6599 51.1995 43.0919 51.2741 44.8521C51.3039 45.6874 51.3188 46.3885 51.3188 46.9554C51.3188 47.5222 51.3039 48.2084 51.2741 49.0139C51.1846 50.8039 50.6476 52.2508 49.6631 53.3546C48.6935 54.4585 47.2093 55.0104 45.2104 55.0104ZM45.2104 52.3925C46.1353 52.3925 46.8289 52.0942 47.2913 51.4975C47.7537 50.8859 47.9999 50.0207 48.0297 48.902C48.0446 48.4694 48.0521 47.8056 48.0521 46.9106C48.0521 46.0156 48.0446 45.3667 48.0297 44.964C47.9999 43.8751 47.7537 43.0248 47.2913 42.4132C46.8289 41.8017 46.1353 41.4884 45.2104 41.4735C44.2856 41.4884 43.592 41.8017 43.1296 42.4132C42.6672 43.0248 42.421 43.8751 42.3912 44.964C42.3763 45.3667 42.3688 46.0156 42.3688 46.9106C42.3688 47.8056 42.3763 48.4694 42.3912 48.902C42.421 50.0207 42.6672 50.8859 43.1296 51.4975C43.592 52.0942 44.2856 52.3925 45.2104 52.3925Z" fill="white"/>
<path d="M62.846 55.0104C60.8173 55.0104 59.2436 54.4957 58.1248 53.4665C57.0061 52.4372 56.4467 50.8785 56.4467 48.7901V39.6835C56.4467 39.5194 56.4915 39.3852 56.581 39.2807C56.6854 39.1763 56.8196 39.1241 56.9837 39.1241H59.0422C59.2063 39.1241 59.3406 39.1763 59.445 39.2807C59.5494 39.3852 59.6016 39.5194 59.6016 39.6835V48.7901C59.6016 49.9685 59.8776 50.8561 60.4295 51.4527C60.9963 52.0494 61.7943 52.3477 62.8236 52.3477C63.8529 52.3477 64.6434 52.0494 65.1954 51.4527C65.7622 50.8561 66.0456 49.9685 66.0456 48.7901V39.6835C66.0456 39.5194 66.0978 39.3852 66.2022 39.2807C66.3066 39.1763 66.4409 39.1241 66.605 39.1241H68.6635C68.8276 39.1241 68.9544 39.1763 69.0439 39.2807C69.1483 39.3852 69.2005 39.5194 69.2005 39.6835V48.7901C69.2005 50.8785 68.6411 52.4372 67.5224 53.4665C66.4185 54.4957 64.8597 55.0104 62.846 55.0104Z" fill="white"/>
<path d="M74.4139 54.4062C74.2648 54.4062 74.138 54.354 74.0335 54.2496C73.9291 54.1452 73.8769 54.0184 73.8769 53.8692V39.3031C73.8769 39.139 73.9217 39.0048 74.0112 38.9004C74.1156 38.7959 74.2498 38.7437 74.4139 38.7437H76.1592C76.4426 38.7437 76.6589 38.8705 76.808 39.1241L83.2073 49.0586V39.3031C83.2073 39.139 83.2521 39.0048 83.3416 38.9004C83.446 38.7959 83.5802 38.7437 83.7443 38.7437H85.6686C85.8326 38.7437 85.9669 38.7959 86.0713 38.9004C86.1757 39.0048 86.2279 39.139 86.2279 39.3031V53.8469C86.2279 54.011 86.1757 54.1452 86.0713 54.2496C85.9669 54.354 85.8401 54.4062 85.6909 54.4062H83.9233C83.625 54.4062 83.4012 54.2795 83.2521 54.0259L76.8752 44.3151V53.8692C76.8752 54.0184 76.823 54.1452 76.7186 54.2496C76.6291 54.354 76.5023 54.4062 76.3382 54.4062H74.4139Z" fill="white"/>
<path d="M92.4713 54.4062C92.3221 54.4062 92.1953 54.354 92.0909 54.2496C91.9865 54.1452 91.9343 54.0184 91.9343 53.8692V39.3031C91.9343 39.139 91.979 39.0048 92.0685 38.9004C92.1729 38.7959 92.3072 38.7437 92.4713 38.7437H97.9308C102.331 38.7437 104.576 40.7724 104.666 44.8297C104.695 45.6949 104.71 46.2767 104.71 46.575C104.71 46.8584 104.695 47.4327 104.666 48.2979C104.606 50.3862 104.039 51.9301 102.965 52.9295C101.906 53.914 100.265 54.4062 98.0426 54.4062H92.4713ZM97.9308 51.8107C99.1688 51.8107 100.064 51.5348 100.616 50.9829C101.168 50.431 101.459 49.5136 101.488 48.2307C101.518 47.3357 101.533 46.7764 101.533 46.5526C101.533 46.314 101.518 45.762 101.488 44.8969C101.459 43.6737 101.153 42.7787 100.571 42.2119C99.9893 41.6301 99.0719 41.3392 97.8189 41.3392H95.0891V51.8107H97.9308Z" fill="white"/>
<defs>
<linearGradient id="paint0_linear" x1="0" y1="0" x2="66.5758" y2="9.16044" gradientUnits="userSpaceOnUse">
<stop stop-color="#CD2EDB"/>
<stop offset="1" stop-color="#2EDBB1"/>
</linearGradient>
</defs>
</svg>
