<?xml version="1.0" encoding="UTF-8"?>
<svg data-bbox="1.623 2.3 728.6 728.6" viewBox="0 0 730.89 730.89" xmlns="http://www.w3.org/2000/svg" data-type="shape">
    <g>
        <path d="M614.36 186.45L186.45 614.36a305.16 305.16 0 0 0 179 57.65c169.31 0 306.56-137.25 306.56-306.56a305.16 305.16 0 0 0-57.65-179z"/>
        <path d="M592.12 159.06A305.77 305.77 0 0 0 365.45 58.89c-169.31 0-306.56 137.25-306.56 306.56a305.19 305.19 0 0 0 59.44 181.41l214.69-214.68 24.83 24.84-217 217q8.75 9.4 18.23 18.08z"/>
        <path d="M660.556 114.362c14.075 14.074 14.075 36.894 0 50.968s-36.894 14.075-50.968 0-14.074-36.894 0-50.968 36.894-14.074 50.968 0z"/>
        <path d="M600.671 167.446l7.071 7.07L174.23 608.03l-7.07-7.071 433.51-433.513z"/>
        <path d="M365.45 730.9a364.3 364.3 0 1 1 142.25-28.72 363.32 363.32 0 0 1-142.25 28.72zm0-724.9C167.25 6 6 167.25 6 365.45S167.25 724.9 365.45 724.9 724.9 563.65 724.9 365.45 563.65 6 365.45 6z"/>
    </g>
</svg>
