<svg width="30" height="32" viewBox="0 0 30 32" fill="none" xmlns="http://www.w3.org/2000/svg">
<path d="M27.6421 3.61969e-08H1.61357C0.722321 0.000585976 -0.000178538 0.791211 3.30943e-08 1.76641V30.2352C0.00053575 31.21 0.723393 32.0002 1.615 32H15.6286V19.625H11.8286V14.7812H15.6286V11.2166C15.6286 7.08281 17.9359 4.83281 21.3073 4.83281C22.9221 4.83281 24.3098 4.96445 24.7143 5.02324V9.34375H22.3895C20.5552 9.34375 20.2 10.2971 20.2 11.6963V14.7812H24.5857L24.0143 19.625H20.2V32H27.6421C28.5339 32.0002 29.257 31.2098 29.2571 30.2344C29.2571 30.2342 29.2571 30.234 29.2571 30.2336V1.76484C29.2568 0.790039 28.5338 -0.000195276 27.6421 3.61969e-08Z" fill="white"/>
</svg>
