<svg width="32" height="33" viewBox="0 0 32 33" fill="none" xmlns="http://www.w3.org/2000/svg">
<path d="M31.9187 9.40991C31.8437 7.7093 31.5687 6.54014 31.1747 5.52705C30.7683 4.45168 30.1431 3.48891 29.3239 2.68855C28.5235 1.87573 27.5544 1.24414 26.4915 0.844078C25.4726 0.450126 24.3095 0.175117 22.6089 0.100137C20.8956 0.0188061 20.3517 0 16.0062 0C11.6608 0 11.1169 0.0188061 9.40991 0.0937865C7.7093 0.168767 6.54014 0.44402 5.5273 0.837728C4.45168 1.24414 3.48891 1.86938 2.68855 2.68855C1.87573 3.48891 1.24438 4.45803 0.844078 5.52095C0.450126 6.54014 0.175117 7.70295 0.100137 9.40356C0.0188061 11.1169 0 11.6608 0 16.0062C0 20.3517 0.0188061 20.8956 0.0937865 22.6025C0.168767 24.3032 0.44402 25.4723 0.837972 26.4854C1.24438 27.5608 1.87573 28.5236 2.68855 29.3239C3.48891 30.1367 4.45803 30.7683 5.52095 31.1684C6.54014 31.5623 7.70295 31.8373 9.4038 31.9123C11.1105 31.9875 11.6547 32.0061 16.0001 32.0061C20.3456 32.0061 20.8895 31.9875 22.5964 31.9123C24.2971 31.8373 25.4662 31.5623 26.4791 31.1684C28.63 30.3368 30.3306 28.6361 31.1623 26.4854C31.556 25.4662 31.8312 24.3032 31.9062 22.6025C31.9812 20.8956 32 20.3517 32 16.0062C32 11.6608 31.9936 11.1169 31.9187 9.40991ZM29.0364 22.4775C28.9676 24.0406 28.705 24.8847 28.4862 25.4474C27.9484 26.8417 26.8417 27.9484 25.4474 28.4862C24.8847 28.705 24.0345 28.9676 22.4775 29.0362C20.7893 29.1114 20.283 29.13 16.0126 29.13C11.7421 29.13 11.2295 29.1114 9.54742 29.0362C7.98431 28.9676 7.14023 28.705 6.57751 28.4862C5.88364 28.2297 5.25204 27.8233 4.73939 27.2919C4.20794 26.7729 3.80153 26.1476 3.54508 25.4538C3.32625 24.891 3.06369 24.0406 2.99506 22.4838C2.91984 20.7957 2.90128 20.2891 2.90128 16.0187C2.90128 11.7482 2.91984 11.2356 2.99506 9.55377C3.06369 7.99066 3.32625 7.14658 3.54508 6.58386C3.80153 5.88974 4.20794 5.25839 4.74574 4.7455C5.2645 4.21404 5.88974 3.80763 6.58386 3.55143C7.14658 3.3326 7.99701 3.07004 9.55377 3.00117C11.2419 2.92619 11.7485 2.90738 16.0187 2.90738C20.2955 2.90738 20.8018 2.92619 22.4838 3.00117C24.047 3.07004 24.891 3.3326 25.4538 3.55143C26.1476 3.80763 26.7792 4.21404 27.2919 4.7455C27.8233 5.2645 28.2297 5.88974 28.4862 6.58386C28.705 7.14658 28.9676 7.99676 29.0364 9.55377C29.1114 11.2419 29.1302 11.7482 29.1302 16.0187C29.1302 20.2891 29.1114 20.7893 29.0364 22.4775Z" fill="white"/>
<path d="M16.0063 7.7843C11.4671 7.7843 7.7843 11.4669 7.7843 16.0063C7.7843 20.5456 11.4671 24.2282 16.0063 24.2282C20.5456 24.2282 24.2282 20.5456 24.2282 16.0063C24.2282 11.4669 20.5456 7.7843 16.0063 7.7843ZM16.0063 21.3396C13.0615 21.3396 10.6729 18.9512 10.6729 16.0063C10.6729 13.0613 13.0615 10.6729 16.0063 10.6729C18.9512 10.6729 21.3396 13.0613 21.3396 16.0063C21.3396 18.9512 18.9512 21.3396 16.0063 21.3396Z" fill="white"/>
<path d="M26.473 7.45924C26.473 8.51923 25.6135 9.37869 24.5533 9.37869C23.4933 9.37869 22.6339 8.51923 22.6339 7.45924C22.6339 6.39902 23.4933 5.53979 24.5533 5.53979C25.6135 5.53979 26.473 6.39902 26.473 7.45924Z" fill="white"/>
</svg>
